<svg xmlns="http://www.w3.org/2000/svg" xmlns:xlink="http://www.w3.org/1999/xlink" version="1.1" x="0px" y="0px" viewBox="0 0 100 125" style="enable-background:new 0 0 100 100;" xml:space="preserve"><g><path d="M50,87.5c9.6,0,19.2-3.7,26.5-11c14.6-14.6,14.6-38.4,0-53c-14.6-14.6-38.4-14.6-53,0c-14.6,14.6-14.6,38.4,0,53   C30.8,83.8,40.4,87.5,50,87.5z M25.6,25.6c6.7-6.7,15.6-10.1,24.4-10.1s17.7,3.4,24.4,10.1c13.5,13.5,13.5,35.3,0,48.8   c-13.5,13.5-35.3,13.5-48.8,0C12.2,60.9,12.2,39.1,25.6,25.6z"/><path d="M37.5,66.5c0.4,0,0.8-0.2,1.1-0.5l13-14.1c0.3-0.3,0.4-0.6,0.4-1V32c0-0.8-0.7-1.5-1.5-1.5S49,31.2,49,32v18.3L36.4,64   c-0.6,0.6-0.5,1.6,0.1,2.1C36.7,66.4,37.1,66.5,37.5,66.5z"/></g><text x="0" y="115" fill="#000000" font-size="5px" font-weight="bold" font-family="'Helvetica Neue', Helvetica, Arial-Unicode, Arial, Sans-serif">Created by Genius Icons</text><text x="0" y="120" fill="#000000" font-size="5px" font-weight="bold" font-family="'Helvetica Neue', Helvetica, Arial-Unicode, Arial, Sans-serif">from the Noun Project</text></svg>