<?xml version="1.0" encoding="UTF-8" standalone="no"?>
<!-- Created with Inkscape (http://www.inkscape.org/) -->

<svg
   xmlns:dc="http://purl.org/dc/elements/1.1/"
   xmlns:cc="http://creativecommons.org/ns#"
   xmlns:rdf="http://www.w3.org/1999/02/22-rdf-syntax-ns#"
   xmlns:svg="http://www.w3.org/2000/svg"
   xmlns="http://www.w3.org/2000/svg"
   xmlns:xlink="http://www.w3.org/1999/xlink"
   xmlns:sodipodi="http://sodipodi.sourceforge.net/DTD/sodipodi-0.dtd"
   xmlns:inkscape="http://www.inkscape.org/namespaces/inkscape"
   width="125.47337mm"
   height="28.800362mm"
   viewBox="0 0 125.47333 28.800363"
   version="1.1"
   id="svg1492"
   inkscape:version="0.92.1 r15371"
   sodipodi:docname="sphinx.svg">
  <defs
     id="defs1486">
    <marker
       inkscape:isstock="true"
       style="overflow:visible"
       id="marker5426"
       refX="0"
       refY="0"
       orient="auto"
       inkscape:stockid="Arrow2Mend">
      <path
         transform="scale(-0.6)"
         d="M 8.7185878,4.0337352 -2.2072895,0.01601326 8.7185884,-4.0017078 c -1.7454984,2.3720609 -1.7354408,5.6174519 -6e-7,8.035443 z"
         style="fill:#00ff00;fill-opacity:1;fill-rule:evenodd;stroke:#00ff00;stroke-width:0.625;stroke-linejoin:round;stroke-opacity:1"
         id="path5424"
         inkscape:connector-curvature="0" />
    </marker>
    <clipPath
       id="a">
      <use
         id="use6691"
         overflow="visible"
         xlink:href="#b"
         style="overflow:visible"
         x="0"
         y="0"
         width="100%"
         height="100%" />
    </clipPath>
    <clipPath
       id="clipPath2132">
      <use
         id="use2130"
         overflow="visible"
         xlink:href="#b"
         style="overflow:visible"
         x="0"
         y="0"
         width="100%"
         height="100%" />
    </clipPath>
    <clipPath
       id="clipPath2136">
      <use
         id="use2134"
         overflow="visible"
         xlink:href="#b"
         style="overflow:visible"
         x="0"
         y="0"
         width="100%"
         height="100%" />
    </clipPath>
    <clipPath
       id="clipPath2140">
      <use
         id="use2138"
         overflow="visible"
         xlink:href="#b"
         style="overflow:visible"
         x="0"
         y="0"
         width="100%"
         height="100%" />
    </clipPath>
    <rect
       height="51.351002"
       width="82.656998"
       y="18.76"
       x="4.368"
       id="b" />
    <clipPath
       id="a-5">
      <use
         id="use6691-6"
         overflow="visible"
         xlink:href="#b-7"
         style="overflow:visible"
         x="0"
         y="0"
         width="100%"
         height="100%" />
    </clipPath>
    <clipPath
       id="clipPath2132-2">
      <use
         id="use2130-9"
         overflow="visible"
         xlink:href="#b-7"
         style="overflow:visible"
         x="0"
         y="0"
         width="100%"
         height="100%" />
    </clipPath>
    <clipPath
       id="clipPath2136-1">
      <use
         id="use2134-2"
         overflow="visible"
         xlink:href="#b-7"
         style="overflow:visible"
         x="0"
         y="0"
         width="100%"
         height="100%" />
    </clipPath>
    <clipPath
       id="clipPath2140-7">
      <use
         id="use2138-0"
         overflow="visible"
         xlink:href="#b-7"
         style="overflow:visible"
         x="0"
         y="0"
         width="100%"
         height="100%" />
    </clipPath>
    <rect
       height="51.351002"
       width="82.656998"
       y="18.76"
       x="4.368"
       id="b-7" />
    <marker
       inkscape:stockid="Arrow2Mend"
       orient="auto"
       refY="0"
       refX="0"
       id="Arrow2Mend-5"
       style="overflow:visible"
       inkscape:isstock="true"
       inkscape:collect="always">
      <path
         inkscape:connector-curvature="0"
         id="path12009-9"
         style="fill:#00ff00;fill-opacity:1;fill-rule:evenodd;stroke:#00ff00;stroke-width:0.625;stroke-linejoin:round;stroke-opacity:1"
         d="M 8.7185878,4.0337352 -2.2072895,0.01601326 8.7185884,-4.0017078 c -1.7454984,2.3720609 -1.7354408,5.6174519 -6e-7,8.035443 z"
         transform="scale(-0.6)" />
    </marker>
    <marker
       inkscape:stockid="Arrow2Mend"
       orient="auto"
       refY="0"
       refX="0"
       id="Arrow2Mend-5-3"
       style="overflow:visible"
       inkscape:isstock="true"
       inkscape:collect="always">
      <path
         inkscape:connector-curvature="0"
         id="path12009-9-6"
         style="fill:#00ff00;fill-opacity:1;fill-rule:evenodd;stroke:#00ff00;stroke-width:0.625;stroke-linejoin:round;stroke-opacity:1"
         d="M 8.7185878,4.0337352 -2.2072895,0.01601326 8.7185884,-4.0017078 c -1.7454984,2.3720609 -1.7354408,5.6174519 -6e-7,8.035443 z"
         transform="scale(-0.6)" />
    </marker>
  </defs>
  <sodipodi:namedview
     id="base"
     pagecolor="#ffffff"
     bordercolor="#666666"
     borderopacity="1.0"
     inkscape:pageopacity="0.0"
     inkscape:pageshadow="2"
     inkscape:zoom="1.6089237"
     inkscape:cx="237.11504"
     inkscape:cy="44.170601"
     inkscape:document-units="mm"
     inkscape:current-layer="layer1"
     showgrid="false"
     inkscape:window-width="1293"
     inkscape:window-height="815"
     inkscape:window-x="79"
     inkscape:window-y="57"
     inkscape:window-maximized="0" />
  <metadata
     id="metadata1489">
    <rdf:RDF>
      <cc:Work
         rdf:about="">
        <dc:format>image/svg+xml</dc:format>
        <dc:type
           rdf:resource="http://purl.org/dc/dcmitype/StillImage" />
        <dc:title></dc:title>
      </cc:Work>
    </rdf:RDF>
  </metadata>
  <g
     inkscape:label="Layer 1"
     inkscape:groupmode="layer"
     id="layer1"
     transform="translate(-53.239452,-222.41556)">
    <g
       id="g31675"
       transform="matrix(0.12737998,0,0,0.12737998,328.77203,163.55952)"
       style="fill:#008000">
      <g
         id="g31647"
         style="fill:#008000">
        <circle
           id="circle31649"
           r="2.678"
           cy="631.23199"
           cx="-2142.5449"
           style="fill:#008000" />
      </g>
      <g
         id="g31651"
         style="fill:#008000">
        <circle
           id="circle31653"
           r="2.678"
           cy="631.23199"
           cx="-2128.4041"
           style="fill:#008000" />
      </g>
      <g
         id="g31655"
         style="fill:#008000">
        <path
           id="path31657"
           d="m -2129.969,640.183 c -0.391,-0.613 -1.209,-0.794 -1.826,-0.409 -0.014,0.009 -1.387,0.85 -3.624,0.85 -2.241,0 -3.724,-0.844 -3.768,-0.869 -0.624,-0.375 -1.435,-0.174 -1.815,0.45 -0.38,0.626 -0.181,1.441 0.445,1.821 0.084,0.051 2.094,1.25 5.137,1.25 3.012,0 4.858,-1.141 5.058,-1.272 0.612,-0.396 0.784,-1.207 0.393,-1.821 z"
           inkscape:connector-curvature="0"
           style="fill:#008000" />
      </g>
      <path
         id="path31659"
         d="m -2106.198,609.817 c -2.411,0.138 -4.596,0.749 -6.551,1.627 -4.228,-7.14 -12.006,-11.94 -20.888,-11.94 -5.887,0 -11.291,2.109 -15.497,5.61 -0.946,0.642 -6.035,4.212 -8.766,8.507 -3.296,5.182 -5.048,11.765 -5.17,12.5 -0.147,0.88 2.431,-1.824 4.84,-3.908 -0.326,1.903 -0.6,4.153 -0.756,6.825 -0.935,16.015 9.614,25.02 10,24.583 0.259,-0.292 -1.942,-5.195 -3.109,-11.905 4.038,4.472 10.065,7.155 16.805,7.155 8.346,0 16.533,-3.843 21.139,-10.642 2.893,-4.27 4.778,-9.263 4.778,-14.461 0,-0.588 -0.028,-1.169 -0.07,-1.746 0.837,0.263 1.646,0.768 2.385,1.606 2.487,2.819 3.473,5.761 3.692,9.29 -0.03,0.76 -0.271,6.297 -0.949,9.342 -0.73,3.273 -3.38,8.819 -3.255,9.436 0.061,0.301 1.344,-0.162 2.641,-0.714 -0.119,1.147 -0.235,2.324 -0.339,3.567 -1.49,17.886 8.81,26.951 9.767,25.609 0.675,-0.946 -3.384,-1.874 -2.597,-13.131 1.637,1.733 3.659,2.921 3.848,2.619 0.28,-0.447 -1.677,-6.875 -1.118,-13.196 0.294,-3.318 1.038,-7.292 1.777,-10.695 0.777,-2.692 1.384,-5.22 1.832,-7.586 0.011,-0.039 0.023,-0.086 0.023,-0.086 l -0.01,0.01 c 3.838,-20.429 -4.075,-28.869 -14.453,-28.276 z m -28.848,37.166 c -4.992,-0.3 -9.564,-2.18 -13.222,-5.147 -1.927,-1.808 -3.458,-4.019 -4.502,-6.486 -0.049,-1.48 -0.019,-2.997 0.118,-4.531 0.366,-2.189 1.011,-4.324 2.401,-7.051 3.581,-7.032 9.056,-7.36 9.056,-7.36 0,0 4.041,6.089 13.291,7.36 7.625,1.048 9.75,4.228 11.361,7.17 -1.409,8.999 -9.141,15.924 -18.503,16.045 z"
         inkscape:connector-curvature="0"
         style="fill:#008000" />
      <path
         id="path31661"
         d="m -2122.194,680.147 c 0,0 -2.526,-4.124 -4.498,-8.088 -2.277,1.388 -5.348,2.233 -8.786,2.233 -3.386,0 -6.416,-0.821 -8.682,-2.171 -1.986,3.848 -4.602,8.027 -4.602,8.027 0,0 0.542,1.022 2.189,2.116 -0.784,1.167 -1.348,1.963 -1.348,1.963 0,0 2.292,3.922 12.443,3.922 10.151,0 12.442,-3.922 12.442,-3.922 0,0 -0.552,-0.798 -1.324,-1.979 1.63,-1.089 2.166,-2.101 2.166,-2.101 z"
         inkscape:connector-curvature="0"
         style="fill:#008000" />
      <path
         id="path31663"
         d="m -2143.257,670.295 c 1.982,1.22 4.756,1.997 7.779,1.997 3.09,0 5.918,-0.812 7.907,-2.079 -0.829,-1.834 -1.417,-3.475 -1.417,-4.441 0,-2.283 1.552,-12.021 0.758,-12.98 -0.828,-1 -1.581,0 -1.581,0 0,0 -3.834,3.345 -5.668,3.345 -1.833,0 -5.7,-3.243 -5.7,-3.243 0,0 -1.009,-0.966 -1.762,-0.021 -0.597,0.75 0.976,11.593 0.976,13.586 0,0.791 -0.528,2.207 -1.292,3.836 z m 7.779,-11.826 c 0.76,0 1.376,0.616 1.376,1.376 0,0.76 -0.616,1.376 -1.376,1.376 -0.76,0 -1.376,-0.616 -1.376,-1.376 0,-0.76 0.616,-1.376 1.376,-1.376 z m 0,4.206 c 0.76,0 1.376,0.616 1.376,1.376 0,0.76 -0.616,1.376 -1.376,1.376 -0.76,0 -1.376,-0.616 -1.376,-1.376 0,-0.76 0.616,-1.376 1.376,-1.376 z"
         inkscape:connector-curvature="0"
         style="fill:#008000" />
    </g>
    <g
       id="g7055-8-88-2"
       transform="matrix(0.08181195,0,0,0.08181195,91.964293,211.22923)">
      <g
         id="g7037-7-3-6">
        <path
           id="path7039-92-1-7"
           d="m -197,416 c -2.5,0 -5.1,0.1 -7.6,0.2 l 0.8,2.8 c 2.2,-0.1 4.4,-0.2 6.8,-0.2 20.5,0 33.6,4.6 33.6,7.7 0,3.1 -13.1,7.7 -33.6,7.7 -0.2,0 -0.4,0 -0.6,0 -0.2,-1.1 -0.4,-2.2 -0.8,-3.4 -1.6,-4.9 -4.7,-8.5 -7.6,-9.2 l -12.1,-37.4 c -0.4,-1.1 -1.6,-1.7 -2.7,-1.4 -1.1,0.4 -1.7,1.6 -1.4,2.7 L -210,423 c -1.7,2.1 -2.2,6.1 -1.1,10.5 -12.3,-1.4 -19.6,-4.6 -19.6,-6.9 0,-2.1 6,-4.9 16.3,-6.5 l -0.7,-2.8 c -10.6,1.6 -18.5,4.7 -18.5,9.3 0,0.5 0.1,1.1 0.3,1.6 0,0 0,0.1 0,0.1 l 0.5,2.4 c 3.5,15.9 6.2,28.5 35.6,28.5 29.5,0 32.3,-13.1 35.9,-29.8 l 0.3,-1.2 c 0.2,-0.5 0.3,-1 0.3,-1.5 0.2,-7.1 -18.2,-10.7 -36.3,-10.7 z m 0,40.2 c -26.1,0 -29.2,-9.7 -32.5,-24.5 6.4,3.6 19.5,5.5 32.5,5.5 13,0 26.1,-1.9 32.5,-5.5 -3.3,14.8 -6.9,24.5 -32.5,24.5 z"
           inkscape:connector-curvature="0" />
        <path
           id="path7041-0-8-5"
           d="m -212.1,388.2 1.3,-0.2 c 4.7,-0.6 9.7,-1 14.9,-1 21.1,0 34.1,5.3 34.1,9.1 0,1.7 -2.6,4.2 -10.1,6.3 0,0 -2.8,0.8 -6.3,1.1 l 2.3,-1.7 c 0.6,-0.5 0.7,-1.4 0.3,-2 -0.5,-0.6 -1.4,-0.8 -2,-0.3 l -8.3,6.3 9.1,5 c 0.2,0.1 0.4,0.2 0.7,0.2 0.5,0 1,-0.3 1.3,-0.7 0.4,-0.7 0.1,-1.6 -0.6,-1.9 l -3.3,-1.8 c 4.1,-0.3 7.5,-1.3 7.6,-1.3 7.9,-2.2 12.1,-5.3 12.1,-9 0,-7.8 -19,-12 -36.9,-12 -5.3,0 -10.5,0.3 -15.3,1 l -1.3,0.2 c -0.8,0.1 -1.3,0.9 -1.2,1.6 0.1,0.7 0.9,1.2 1.6,1.1 z"
           inkscape:connector-curvature="0" />
        <path
           id="path7043-2-9-6"
           d="m -225.4,402.9 c 0.6,0 1.2,-0.4 1.4,-1 0.2,-0.8 -0.2,-1.6 -1,-1.8 -5.6,-1.6 -7.1,-3.4 -7.1,-4.1 0,-0.7 1.4,-2.4 6.7,-4 0.8,-0.2 1.2,-1 0.9,-1.8 -0.2,-0.8 -1,-1.2 -1.8,-0.9 -5.8,1.8 -8.7,4 -8.7,6.7 0,2.8 3.1,5.1 9.2,6.9 0.1,0 0.2,0 0.4,0 z"
           inkscape:connector-curvature="0" />
      </g>
    </g>
    <g
       id="g7055-8-88-2-3"
       transform="matrix(0.08181195,0,0,0.08181195,134.94193,211.77833)">
      <g
         id="g7037-7-3-6-6">
        <path
           id="path7039-92-1-7-7"
           d="m -197,416 c -2.5,0 -5.1,0.1 -7.6,0.2 l 0.8,2.8 c 2.2,-0.1 4.4,-0.2 6.8,-0.2 20.5,0 33.6,4.6 33.6,7.7 0,3.1 -13.1,7.7 -33.6,7.7 -0.2,0 -0.4,0 -0.6,0 -0.2,-1.1 -0.4,-2.2 -0.8,-3.4 -1.6,-4.9 -4.7,-8.5 -7.6,-9.2 l -12.1,-37.4 c -0.4,-1.1 -1.6,-1.7 -2.7,-1.4 -1.1,0.4 -1.7,1.6 -1.4,2.7 L -210,423 c -1.7,2.1 -2.2,6.1 -1.1,10.5 -12.3,-1.4 -19.6,-4.6 -19.6,-6.9 0,-2.1 6,-4.9 16.3,-6.5 l -0.7,-2.8 c -10.6,1.6 -18.5,4.7 -18.5,9.3 0,0.5 0.1,1.1 0.3,1.6 0,0 0,0.1 0,0.1 l 0.5,2.4 c 3.5,15.9 6.2,28.5 35.6,28.5 29.5,0 32.3,-13.1 35.9,-29.8 l 0.3,-1.2 c 0.2,-0.5 0.3,-1 0.3,-1.5 0.2,-7.1 -18.2,-10.7 -36.3,-10.7 z m 0,40.2 c -26.1,0 -29.2,-9.7 -32.5,-24.5 6.4,3.6 19.5,5.5 32.5,5.5 13,0 26.1,-1.9 32.5,-5.5 -3.3,14.8 -6.9,24.5 -32.5,24.5 z"
           inkscape:connector-curvature="0" />
        <path
           id="path7041-0-8-5-5"
           d="m -212.1,388.2 1.3,-0.2 c 4.7,-0.6 9.7,-1 14.9,-1 21.1,0 34.1,5.3 34.1,9.1 0,1.7 -2.6,4.2 -10.1,6.3 0,0 -2.8,0.8 -6.3,1.1 l 2.3,-1.7 c 0.6,-0.5 0.7,-1.4 0.3,-2 -0.5,-0.6 -1.4,-0.8 -2,-0.3 l -8.3,6.3 9.1,5 c 0.2,0.1 0.4,0.2 0.7,0.2 0.5,0 1,-0.3 1.3,-0.7 0.4,-0.7 0.1,-1.6 -0.6,-1.9 l -3.3,-1.8 c 4.1,-0.3 7.5,-1.3 7.6,-1.3 7.9,-2.2 12.1,-5.3 12.1,-9 0,-7.8 -19,-12 -36.9,-12 -5.3,0 -10.5,0.3 -15.3,1 l -1.3,0.2 c -0.8,0.1 -1.3,0.9 -1.2,1.6 0.1,0.7 0.9,1.2 1.6,1.1 z"
           inkscape:connector-curvature="0" />
        <path
           id="path7043-2-9-6-3"
           d="m -225.4,402.9 c 0.6,0 1.2,-0.4 1.4,-1 0.2,-0.8 -0.2,-1.6 -1,-1.8 -5.6,-1.6 -7.1,-3.4 -7.1,-4.1 0,-0.7 1.4,-2.4 6.7,-4 0.8,-0.2 1.2,-1 0.9,-1.8 -0.2,-0.8 -1,-1.2 -1.8,-0.9 -5.8,1.8 -8.7,4 -8.7,6.7 0,2.8 3.1,5.1 9.2,6.9 0.1,0 0.2,0 0.4,0 z"
           inkscape:connector-curvature="0" />
      </g>
    </g>
    <path
       style="fill:#00ff00;fill-rule:evenodd;stroke:#00ff00;stroke-width:0.26458335px;stroke-linecap:butt;stroke-linejoin:miter;stroke-opacity:1;marker-end:url(#Arrow2Mend-5)"
       d="m 80.506227,246.54745 c 33.368213,-0.22048 33.368213,-0.22048 33.368213,-0.22048"
       id="path12743-4"
       inkscape:connector-curvature="0" />
    <g
       id="g7055-8-88-2-3-4"
       transform="matrix(0.08181195,0,0,0.08181195,182.10646,211.51545)">
      <g
         id="g7037-7-3-6-6-7">
        <path
           id="path7039-92-1-7-7-8"
           d="m -197,416 c -2.5,0 -5.1,0.1 -7.6,0.2 l 0.8,2.8 c 2.2,-0.1 4.4,-0.2 6.8,-0.2 20.5,0 33.6,4.6 33.6,7.7 0,3.1 -13.1,7.7 -33.6,7.7 -0.2,0 -0.4,0 -0.6,0 -0.2,-1.1 -0.4,-2.2 -0.8,-3.4 -1.6,-4.9 -4.7,-8.5 -7.6,-9.2 l -12.1,-37.4 c -0.4,-1.1 -1.6,-1.7 -2.7,-1.4 -1.1,0.4 -1.7,1.6 -1.4,2.7 L -210,423 c -1.7,2.1 -2.2,6.1 -1.1,10.5 -12.3,-1.4 -19.6,-4.6 -19.6,-6.9 0,-2.1 6,-4.9 16.3,-6.5 l -0.7,-2.8 c -10.6,1.6 -18.5,4.7 -18.5,9.3 0,0.5 0.1,1.1 0.3,1.6 0,0 0,0.1 0,0.1 l 0.5,2.4 c 3.5,15.9 6.2,28.5 35.6,28.5 29.5,0 32.3,-13.1 35.9,-29.8 l 0.3,-1.2 c 0.2,-0.5 0.3,-1 0.3,-1.5 0.2,-7.1 -18.2,-10.7 -36.3,-10.7 z m 0,40.2 c -26.1,0 -29.2,-9.7 -32.5,-24.5 6.4,3.6 19.5,5.5 32.5,5.5 13,0 26.1,-1.9 32.5,-5.5 -3.3,14.8 -6.9,24.5 -32.5,24.5 z"
           inkscape:connector-curvature="0" />
        <path
           id="path7041-0-8-5-5-4"
           d="m -212.1,388.2 1.3,-0.2 c 4.7,-0.6 9.7,-1 14.9,-1 21.1,0 34.1,5.3 34.1,9.1 0,1.7 -2.6,4.2 -10.1,6.3 0,0 -2.8,0.8 -6.3,1.1 l 2.3,-1.7 c 0.6,-0.5 0.7,-1.4 0.3,-2 -0.5,-0.6 -1.4,-0.8 -2,-0.3 l -8.3,6.3 9.1,5 c 0.2,0.1 0.4,0.2 0.7,0.2 0.5,0 1,-0.3 1.3,-0.7 0.4,-0.7 0.1,-1.6 -0.6,-1.9 l -3.3,-1.8 c 4.1,-0.3 7.5,-1.3 7.6,-1.3 7.9,-2.2 12.1,-5.3 12.1,-9 0,-7.8 -19,-12 -36.9,-12 -5.3,0 -10.5,0.3 -15.3,1 l -1.3,0.2 c -0.8,0.1 -1.3,0.9 -1.2,1.6 0.1,0.7 0.9,1.2 1.6,1.1 z"
           inkscape:connector-curvature="0" />
        <path
           id="path7043-2-9-6-3-5"
           d="m -225.4,402.9 c 0.6,0 1.2,-0.4 1.4,-1 0.2,-0.8 -0.2,-1.6 -1,-1.8 -5.6,-1.6 -7.1,-3.4 -7.1,-4.1 0,-0.7 1.4,-2.4 6.7,-4 0.8,-0.2 1.2,-1 0.9,-1.8 -0.2,-0.8 -1,-1.2 -1.8,-0.9 -5.8,1.8 -8.7,4 -8.7,6.7 0,2.8 3.1,5.1 9.2,6.9 0.1,0 0.2,0 0.4,0 z"
           inkscape:connector-curvature="0" />
      </g>
    </g>
    <text
       xml:space="preserve"
       style="font-style:normal;font-weight:normal;font-size:2.82222223px;line-height:125%;font-family:sans-serif;letter-spacing:0px;word-spacing:0px;fill:#000000;fill-opacity:1;stroke:none;stroke-width:0.26458332px;stroke-linecap:butt;stroke-linejoin:miter;stroke-opacity:1"
       x="82.47599"
       y="244.19669"
       id="text4092"><tspan
         sodipodi:role="line"
         id="tspan4090"
         x="82.47599"
         y="244.19669"
         style="stroke-width:0.26458332px">$(\alpha,\beta,\gamma,\delta)$</tspan></text>
    <text
       xml:space="preserve"
       style="font-style:normal;font-weight:normal;font-size:2.82222223px;line-height:125%;font-family:sans-serif;letter-spacing:0px;word-spacing:0px;fill:#000000;fill-opacity:1;stroke:none;stroke-width:0.26458332px;stroke-linecap:butt;stroke-linejoin:miter;stroke-opacity:1"
       x="126.36784"
       y="244.18933"
       id="text4096"><tspan
         sodipodi:role="line"
         id="tspan4094"
         x="126.36784"
         y="244.18933"
         style="stroke-width:0.26458332px">$(\alpha',\beta',\gamma',\delta')$</tspan></text>
    <path
       style="fill:#00ff00;fill-rule:evenodd;stroke:#00ff00;stroke-width:0.26458332px;stroke-linecap:butt;stroke-linejoin:miter;stroke-opacity:1;marker-end:url(#Arrow2Mend-5-3)"
       d="m 123.66388,246.60513 c 37.9021,-0.22048 37.9021,-0.22048 37.9021,-0.22048"
       id="path12743-4-1"
       inkscape:connector-curvature="0" />
    <path
       style="fill:#00ff00;fill-rule:evenodd;stroke:#00ff00;stroke-width:0.26499999;stroke-linecap:butt;stroke-linejoin:miter;stroke-miterlimit:4;stroke-dasharray:0.26499998, 0.52999996;stroke-dashoffset:0;stroke-opacity:1"
       d="m 63.35333,246.48159 c 8.774751,-0.22048 8.774751,-0.22048 8.774751,-0.22048"
       id="path12743-4-1-6"
       inkscape:connector-curvature="0" />
    <text
       xml:space="preserve"
       style="font-style:normal;font-weight:normal;font-size:2.82222223px;line-height:125%;font-family:sans-serif;letter-spacing:0px;word-spacing:0px;fill:#000000;fill-opacity:1;stroke:none;stroke-width:0.26458332px;stroke-linecap:butt;stroke-linejoin:miter;stroke-opacity:1"
       x="116.53516"
       y="241.49297"
       id="text4643"><tspan
         sodipodi:role="line"
         id="tspan4641"
         x="116.53516"
         y="241.49297"
         style="stroke-width:0.26458332px">$n$</tspan></text>
    <text
       xml:space="preserve"
       style="font-style:normal;font-weight:normal;font-size:2.82222223px;line-height:125%;font-family:sans-serif;letter-spacing:0px;word-spacing:0px;fill:#000000;fill-opacity:1;stroke:none;stroke-width:0.26458332px;stroke-linecap:butt;stroke-linejoin:miter;stroke-opacity:1"
       x="163.77963"
       y="241.2953"
       id="text4647"><tspan
         sodipodi:role="line"
         id="tspan4645"
         x="163.77963"
         y="241.2953"
         style="stroke-width:0.26458332px">$n'$</tspan></text>
    <text
       xml:space="preserve"
       style="font-style:normal;font-weight:normal;font-size:2.82222223px;line-height:125%;font-family:sans-serif;letter-spacing:0px;word-spacing:0px;fill:#000000;fill-opacity:1;stroke:none;stroke-width:0.26458332px;stroke-linecap:butt;stroke-linejoin:miter;stroke-opacity:1"
       x="127.7719"
       y="234.87199"
       id="text4651"><tspan
         sodipodi:role="line"
         id="tspan4649"
         x="127.7719"
         y="234.87199"
         style="stroke-width:0.26458332px">$n'$</tspan></text>
    <ellipse
       style="opacity:0.98999999;fill:#000000;fill-opacity:0.01960784;stroke:#030000;stroke-width:0.10000002;stroke-linecap:butt;stroke-miterlimit:4;stroke-dasharray:0.10000002, 0.10000002;stroke-dashoffset:0;stroke-opacity:1"
       id="path4653"
       cx="129.70361"
       cy="233.71973"
       rx="5.4107599"
       ry="2.8161707" />
    <ellipse
       style="opacity:0.98999999;fill:#000000;fill-opacity:0.01960784;stroke:#030000;stroke-width:0.10000002;stroke-linecap:butt;stroke-miterlimit:4;stroke-dasharray:0.10000002, 0.10000002;stroke-dashoffset:0;stroke-opacity:1"
       id="path4653-3"
       cx="126.11893"
       cy="238.76241"
       rx="2.6803799"
       ry="1.3830854" />
    <ellipse
       style="opacity:0.98999999;fill:#000000;fill-opacity:0.01960784;stroke:#030000;stroke-width:0.10000002;stroke-linecap:butt;stroke-miterlimit:4;stroke-dasharray:0.10000002, 0.10000002;stroke-dashoffset:0;stroke-opacity:1"
       id="path4653-3-6"
       cx="123.5758"
       cy="241.69676"
       rx="1.31519"
       ry="0.66654271" />
    <path
       style="fill:#00ff00;fill-rule:evenodd;stroke:#00ff00;stroke-width:0.26499999;stroke-linecap:butt;stroke-linejoin:miter;stroke-miterlimit:4;stroke-dasharray:0.26499998, 0.52999997;stroke-dashoffset:0;stroke-opacity:1"
       d="m 169.93474,246.54733 c 8.77475,-0.22048 8.77475,-0.22048 8.77475,-0.22048"
       id="path12743-4-1-6-7"
       inkscape:connector-curvature="0" />
    <ellipse
       style="opacity:0.98999999;fill:#000000;fill-opacity:0.01960784;stroke:#030000;stroke-width:0.1;stroke-linecap:butt;stroke-miterlimit:4;stroke-dasharray:0.10000001, 0.10000001;stroke-dashoffset:0;stroke-opacity:1"
       id="path4653-5"
       cx="-104.25194"
       cy="229.74149"
       rx="11.271979"
       ry="5.3357129"
       transform="scale(-1,1)" />
    <ellipse
       style="opacity:0.98999999;fill:#000000;fill-opacity:0.01960784;stroke:#030000;stroke-width:0.10000002;stroke-linecap:butt;stroke-miterlimit:4;stroke-dasharray:0.10000002, 0.10000002;stroke-dashoffset:0;stroke-opacity:1"
       id="path4653-3-62"
       cx="-111.36539"
       cy="237.49931"
       rx="2.6803799"
       ry="1.3830854"
       transform="scale(-1,1)" />
    <ellipse
       style="opacity:0.98999999;fill:#000000;fill-opacity:0.01960784;stroke:#030000;stroke-width:0.10000002;stroke-linecap:butt;stroke-miterlimit:4;stroke-dasharray:0.10000002, 0.10000002;stroke-dashoffset:0;stroke-opacity:1"
       id="path4653-3-6-9"
       cx="-113.90852"
       cy="240.43367"
       rx="1.31519"
       ry="0.66654271"
       transform="scale(-1,1)" />
    <ellipse
       style="opacity:0.98999999;fill:#000000;fill-opacity:0.01960784;stroke:#030000;stroke-width:0.10000002;stroke-linecap:butt;stroke-miterlimit:4;stroke-dasharray:0.10000002, 0.10000002;stroke-dashoffset:0;stroke-opacity:1"
       id="path4653-5-1"
       cx="76.124168"
       cy="228.33122"
       rx="10.162205"
       ry="5.8656592" />
    <ellipse
       style="opacity:0.98999999;fill:#000000;fill-opacity:0.01960784;stroke:#030000;stroke-width:0.10000002;stroke-linecap:butt;stroke-miterlimit:4;stroke-dasharray:0.10000002, 0.10000002;stroke-dashoffset:0;stroke-opacity:1"
       id="path4653-3-62-2"
       cx="66.809914"
       cy="236.619"
       rx="2.6803799"
       ry="1.3830854" />
    <ellipse
       style="opacity:0.98999999;fill:#000000;fill-opacity:0.01960784;stroke:#030000;stroke-width:0.10000002;stroke-linecap:butt;stroke-miterlimit:4;stroke-dasharray:0.10000002, 0.10000002;stroke-dashoffset:0;stroke-opacity:1"
       id="path4653-3-6-9-7"
       cx="64.266785"
       cy="239.55336"
       rx="1.31519"
       ry="0.66654271" />
    <text
       xml:space="preserve"
       style="font-style:normal;font-weight:normal;font-size:2.82222223px;line-height:125%;font-family:sans-serif;letter-spacing:0px;word-spacing:0px;fill:#000000;fill-opacity:1;stroke:none;stroke-width:0.26458332px;stroke-linecap:butt;stroke-linejoin:miter;stroke-opacity:1"
       x="96.9506"
       y="233.02286"
       id="text4920"><tspan
         sodipodi:role="line"
         id="tspan4918"
         x="96.9506"
         y="233.02286"
         style="stroke-width:0.26458332px">$H(x \alpha)$</tspan></text>
    <text
       xml:space="preserve"
       style="font-style:normal;font-weight:normal;font-size:2.82222223px;line-height:125%;font-family:sans-serif;letter-spacing:0px;word-spacing:0px;fill:#000000;fill-opacity:1;stroke:none;stroke-width:0.26458332px;stroke-linecap:butt;stroke-linejoin:miter;stroke-opacity:1"
       x="70.15004"
       y="232.04472"
       id="text4924"><tspan
         sodipodi:role="line"
         id="tspan4922"
         x="70.15004"
         y="232.04472"
         style="stroke-width:0.26458332px">$H(a X)$</tspan></text>
    <text
       xml:space="preserve"
       style="font-style:normal;font-weight:normal;font-size:2.82222223px;line-height:125%;font-family:sans-serif;letter-spacing:0px;word-spacing:0px;fill:#000000;fill-opacity:1;stroke:none;stroke-width:0.26458332px;stroke-linecap:butt;stroke-linejoin:miter;stroke-opacity:1"
       x="96.324677"
       y="228.68663"
       id="text4578"><tspan
         sodipodi:role="line"
         id="tspan4576"
         x="96.324677"
         y="228.68663"
         style="stroke-width:0.26458332px">$X = x G$</tspan></text>
    <text
       xml:space="preserve"
       style="font-style:normal;font-weight:normal;font-size:2.82222223px;line-height:125%;font-family:sans-serif;letter-spacing:0px;word-spacing:0px;fill:#000000;fill-opacity:1;stroke:none;stroke-width:0.26458332px;stroke-linecap:butt;stroke-linejoin:miter;stroke-opacity:1"
       x="68.368614"
       y="227.04216"
       id="text4582"><tspan
         sodipodi:role="line"
         id="tspan4580"
         x="68.368614"
         y="227.04216"
         style="stroke-width:0.26458332px">$\alpha = a G$</tspan></text>
  </g>
</svg>
